# xmcd
#
# Track frame offsets:
#	182
#	9770
#	22410
#	33620
#	45320
#	58220
#	70220
#	80272
#	90770
#	101645
#	111995
#	127370
#	137195
#	147920
#	158045
#	171397
#	181520
#	192470
#	207170
#	216920
#	229595
#	241702
#	253145
#	265970
#	283070
#
# Disc length: 3963 seconds
#
# Revision: 4
# Processed by: cddbd v1.5.2PL0 Copyright (c) Steve Scherf et al.
# Submitted via: EasyCDDAExtractor 8.1.4.1
#
DISCID=6c0f7919
DTITLE=Various Artist - Heart Of The Country
DYEAR=1900
DGENRE=Country
TTITLE0=Ned Miller - From Jack To A King
TTITLE1=Billie Jo Spears - What I've Got in Mind
TTITLE2=Hank Lockin - Send Me The Pillow
TTITLE3=Patsy Cline - A Poor Man's Roses
TTITLE4=Freddy Fender - Silver Wings
TTITLE5=Jack Greene - There Goes My Everything
TTITLE6=Jim Reeves - He'll Have To Go
TTITLE7=Waylon Jennings - White Lightning
TTITLE8=Patsy Cline - I Cried All The Way to The Altar
TTITLE9=Johnny Russel - Jambalaya
TTITLE10=Don Gibson - Sweet Dreams
TTITLE11=Donna Fargo - Sticks And Stones
TTITLE12=Billie Jo Spears - I'm So Lonesome I Could Cry
TTITLE13=Willie Nelson - The Healing Hands Of Time
TTITLE14=Jim Reeves - How's The World Treating You
TTITLE15=Don Williams - Take My Hand For A While
TTITLE16=Porter Wagoner - Enough To Make A Grown Man Cry
TTITLE17=Johnny Paycheck - Green Green Grass Of Home
TTITLE18=Freddy Fender - But I Do
TTITLE19=Kenny Rogers - Reuben James
TTITLE20=Stonewall Jackson - I Love You Because
TTITLE21=Faron Young - Is It Really Over
TTITLE22=Lynn Anderson - Top Of The World
TTITLE23=Carl Perkins - Sweeter Than Candy
TTITLE24=George Jones - A Good Year For the Roses
EXTD=
EXTT0=
EXTT1=
EXTT2=
EXTT3=
EXTT4=
EXTT5=
EXTT6=
EXTT7=
EXTT8=
EXTT9=
EXTT10=
EXTT11=
EXTT12=
EXTT13=
EXTT14=
EXTT15=
EXTT16=
EXTT17=
EXTT18=
EXTT19=
EXTT20=
EXTT21=
EXTT22=
EXTT23=
EXTT24=
PLAYORDER=
